<svg width="414" height="414" viewBox="0 0 414 414" fill="none" xmlns="http://www.w3.org/2000/svg">
<rect width="414" height="414" rx="110" fill="#1C1C1C"/>
<path d="M335.557 179.763C338.912 169.662 340.073 158.961 338.961 148.375C337.849 137.789 334.49 127.563 329.109 118.378C321.132 104.496 308.951 93.5053 294.322 86.9903C279.694 80.4754 263.374 78.7729 247.716 82.1284C238.82 72.2354 227.476 64.8568 214.825 60.7336C202.174 56.6104 188.661 55.8877 175.642 58.6382C162.623 61.3886 150.557 67.5154 140.656 76.4032C130.755 85.2909 123.368 96.6267 119.236 109.272C108.804 111.411 98.9493 115.751 90.3295 122.002C81.7097 128.253 74.5238 136.272 69.2521 145.522C61.188 159.381 57.7414 175.445 59.4107 191.391C61.08 207.337 67.7787 222.34 78.5383 234.229C75.1707 244.326 73.9986 255.025 75.1005 265.611C76.2023 276.197 79.5527 286.426 84.9274 295.613C92.915 309.5 105.107 320.493 119.745 327.008C134.384 333.523 150.714 335.223 166.381 331.864C173.448 339.821 182.133 346.179 191.854 350.513C201.575 354.847 212.109 357.059 222.753 356.999C238.803 357.014 254.442 351.929 267.413 342.48C280.384 333.031 290.016 319.705 294.919 304.426C305.35 302.284 315.203 297.943 323.823 291.691C332.442 285.44 339.629 277.423 344.903 268.175C352.872 254.337 356.259 238.333 354.581 222.454C352.902 206.574 346.243 191.631 335.557 179.763ZM222.753 337.364C209.609 337.385 196.876 332.779 186.789 324.354L188.563 323.349L248.307 288.872C249.794 288 251.028 286.756 251.889 285.263C252.75 283.77 253.208 282.079 253.217 280.355V196.144L278.474 210.752C278.598 210.815 278.707 210.907 278.789 211.02C278.872 211.133 278.926 211.264 278.949 211.402V281.184C278.917 296.074 272.986 310.346 262.454 320.875C251.922 331.404 237.647 337.332 222.753 337.364ZM101.963 285.797C95.371 274.417 93.0041 261.078 95.2788 248.125L97.0543 249.19L156.857 283.668C158.337 284.536 160.022 284.993 161.737 284.993C163.453 284.993 165.137 284.536 166.617 283.668L239.671 241.562V270.717C239.664 270.868 239.623 271.015 239.551 271.148C239.48 271.281 239.379 271.397 239.256 271.485L178.743 306.376C165.829 313.814 150.49 315.824 136.094 311.966C121.699 308.107 109.423 298.695 101.963 285.797ZM86.229 155.694C92.8667 144.242 103.344 135.506 115.805 131.034V201.999C115.783 203.714 116.221 205.403 117.074 206.89C117.927 208.378 119.164 209.609 120.655 210.455L193.354 252.384L168.096 266.99C167.96 267.063 167.807 267.101 167.652 267.101C167.498 267.101 167.345 267.063 167.209 266.99L106.814 232.159C93.9243 224.689 84.5204 212.417 80.6621 198.03C76.8038 183.643 78.8056 168.314 86.229 155.399V155.694ZM293.736 203.892L220.801 161.549L246 146.999C246.137 146.927 246.289 146.889 246.444 146.889C246.599 146.889 246.751 146.927 246.888 146.999L307.282 181.891C316.516 187.217 324.044 195.061 328.987 204.504C333.93 213.948 336.084 224.603 335.197 235.224C334.31 245.846 330.419 255.996 323.979 264.49C317.538 272.983 308.814 279.47 298.824 283.193V212.228C298.771 210.516 298.275 208.848 297.383 207.386C296.49 205.925 295.235 204.721 293.736 203.892ZM318.876 166.103L317.101 165.038L257.417 130.266C255.928 129.392 254.233 128.932 252.507 128.932C250.781 128.932 249.086 129.392 247.597 130.266L174.604 172.371V143.217C174.589 143.069 174.614 142.919 174.676 142.784C174.739 142.648 174.836 142.532 174.959 142.448L235.354 107.616C244.61 102.285 255.193 99.6988 265.866 100.16C276.538 100.622 286.858 104.112 295.62 110.222C304.381 116.332 311.221 124.81 315.34 134.664C319.458 144.517 320.686 155.34 318.878 165.866L318.876 166.103ZM160.819 217.787L135.563 203.239C135.437 203.163 135.329 203.06 135.246 202.938C135.164 202.815 135.11 202.676 135.088 202.531V132.927C135.102 122.249 138.156 111.796 143.893 102.79C149.631 93.7831 157.814 86.5957 167.487 82.0676C177.159 77.5395 187.922 75.8579 198.515 77.2194C209.108 78.5808 219.095 82.9291 227.308 89.7558L225.532 90.7621L165.79 125.237C164.303 126.109 163.068 127.352 162.207 128.845C161.346 130.339 160.889 132.03 160.879 133.753L160.819 217.787ZM174.543 188.219L207.076 169.472L239.671 188.219V225.712L207.195 244.458L174.603 225.712L174.543 188.219Z" fill="white"/>
</svg>
